<svg xmlns="http://www.w3.org/2000/svg" fill-rule="evenodd" stroke-linejoin="round" stroke-miterlimit="2" clip-rule="evenodd" viewBox="0 0 28 28"><path d="M182.019,379C174.844,379 169.019,384.825 169.019,392C169.019,399.175 174.844,405 182.019,405C189.194,405 195.019,399.175 195.019,392C195.019,384.825 189.194,379 182.019,379ZM182.019,396.044C180.363,396.044 179.019,397.388 179.019,399.044C179.019,400.7 180.363,402.044 182.019,402.044C183.675,402.044 185.019,400.7 185.019,399.044C185.019,397.388 183.675,396.044 182.019,396.044ZM182.019,389C180.363,389 179.019,390.344 179.019,392C179.019,393.656 180.363,395 182.019,395C183.675,395 185.019,393.656 185.019,392C185.019,390.344 183.675,389 182.019,389ZM182.019,382C180.363,382 179.019,383.344 179.019,385C179.019,386.656 180.363,388 182.019,388C183.675,388 185.019,386.656 185.019,385C185.019,383.344 183.675,382 182.019,382Z" transform="translate(-168 -378)"/></svg>